<?xml version="1.0" standalone="no"?>
<!DOCTYPE svg PUBLIC "-//W3C//DTD SVG 20010904//EN"
 "http://www.w3.org/TR/2001/REC-SVG-20010904/DTD/svg10.dtd">
<svg version="1.0" xmlns="http://www.w3.org/2000/svg"
 width="1200.000000pt" height="630.000000pt" viewBox="0 0 1200.000000 630.000000"
 preserveAspectRatio="xMidYMid meet">

<g transform="translate(0.000000,630.000000) scale(0.100000,-0.100000)"
fill="#FFFFFF" stroke="none">
<path d="M5805 6183 c-337 -29 -718 -128 -1011 -261 -381 -173 -686 -400 -989
-736 -286 -317 -460 -609 -591 -991 -130 -377 -182 -726 -171 -1143 12 -474
104 -855 301 -1250 369 -740 1065 -1322 1879 -1573 347 -106 737 -142 1147
-105 409 38 644 100 965 256 566 275 1056 720 1371 1242 75 124 180 339 218
446 34 94 34 131 0 163 l-26 24 -786 3 c-543 2 -799 0 -824 -8 -30 -9 -51 -28
-109 -106 -121 -159 -363 -376 -499 -444 -104 -53 -187 -74 -285 -75 -106 0
-147 13 -215 66 -88 70 -109 69 -209 -5 -73 -53 -100 -60 -224 -54 -106 5
-166 27 -307 112 -360 217 -654 565 -816 964 -51 126 -102 334 -116 472 -41
426 159 839 486 999 164 81 271 102 440 89 112 -9 206 -37 321 -96 73 -38 108
-64 182 -139 51 -51 95 -93 99 -93 30 0 -107 290 -213 450 -112 168 -294 347
-470 464 -73 48 -133 93 -133 101 0 49 104 104 157 84 90 -34 307 -231 423
-384 80 -105 162 -234 216 -340 22 -41 42 -75 47 -75 11 0 9 148 -4 274 -10
95 -9 120 5 174 28 110 116 216 225 272 20 10 90 32 156 49 155 40 212 69 274
137 l50 54 5 -42 c36 -291 25 -444 -40 -569 -63 -122 -211 -223 -422 -289
-154 -48 -199 -96 -189 -199 3 -31 11 -74 18 -96 l11 -39 31 39 c53 69 163
171 219 203 139 80 334 111 491 78 163 -33 308 -111 393 -211 27 -32 63 -73
81 -92 l31 -33 756 0 757 0 24 25 c33 32 32 66 -5 199 -149 528 -482 995
-1000 1397 -307 239 -694 422 -1116 528 -107 27 -361 68 -504 81 -106 9 -411
11 -505 3z"/>
<path d="M6592 4074 c-100 -21 -194 -76 -265 -158 -139 -159 -188 -192 -269
-183 -75 9 -133 44 -224 134 -132 130 -283 192 -464 193 -95 0 -171 -20 -280
-72 -137 -66 -260 -204 -326 -366 -45 -111 -56 -172 -61 -327 -4 -127 -2 -166
17 -255 70 -346 249 -661 509 -901 184 -170 443 -300 567 -286 22 2 68 16 100
31 120 56 220 53 346 -8 82 -41 132 -45 236 -21 97 23 159 57 268 147 194 161
321 310 406 478 75 147 144 396 169 604 17 145 7 410 -20 511 -38 146 -123
282 -229 368 -53 43 -173 96 -254 113 -80 17 -136 16 -226 -2z"/>
</g>
</svg>
